<svg width="31" height="31" viewBox="0 0 31 31" fill="none" xmlns="http://www.w3.org/2000/svg">
<path d="M15.1829 5.84057C17.347 5.80727 19.4398 6.61351 21.0223 8.09008L25.2846 3.92216C22.55 1.35974 18.9301 -0.0453416 15.1829 0.00111641C12.383 0.000469455 9.63821 0.778697 7.25537 2.24877C4.87253 3.71884 2.94561 5.8228 1.69011 8.32535L6.57399 12.1171C7.17116 10.3013 8.32326 8.71881 9.86781 7.59271C11.4124 6.4666 13.2714 5.85375 15.1829 5.84057Z" fill="#EA4335"/>
<path d="M29.6822 15.4401C29.7 14.4019 29.5927 13.3653 29.3627 12.3527H15.183V17.9583H23.5073C23.3494 18.9411 22.9943 19.8818 22.4635 20.7239C21.9326 21.5659 21.237 22.2919 20.4184 22.8582L25.1846 26.5497C26.67 25.1156 27.8382 23.3859 28.6136 21.4723C29.389 19.5587 29.7546 17.5037 29.6865 15.4401H29.6822Z" fill="#4285F4"/>
<path d="M6.59153 18.0914C6.26131 17.1299 6.09107 16.1207 6.0876 15.1041C6.09362 14.0891 6.25776 13.0813 6.5741 12.1169L1.69022 8.32507C0.630951 10.4281 0.0791931 12.7501 0.0791931 15.1048C0.0791931 17.4596 0.630951 19.7816 1.69022 21.8846L6.59153 18.0914Z" fill="#FBBC05"/>
<path d="M15.1832 30.2076C18.8621 30.3116 22.4411 29.0025 25.1847 26.5494L20.4185 22.8578C18.8731 23.8938 17.0429 24.4218 15.1832 24.3681C13.2734 24.3568 11.4156 23.7443 9.8735 22.6177C8.33137 21.4911 7.18314 19.9075 6.59171 18.0916L1.70784 21.8848C2.95996 24.3862 4.88372 26.4897 7.26368 27.9596C9.64365 29.4296 12.3858 30.208 15.1832 30.2076Z" fill="#34A853"/>
</svg>
