<svg width="20" height="20" viewBox="0 0 20 20" fill="none" xmlns="http://www.w3.org/2000/svg">
<g filter="url(#filter0_d_79_163)">
<path d="M17.3667 3.84172C16.9411 3.41589 16.4357 3.0781 15.8795 2.84763C15.3233 2.61716 14.7271 2.49854 14.1251 2.49854C13.523 2.49854 12.9268 2.61716 12.3706 2.84763C11.8144 3.0781 11.309 3.41589 10.8834 3.84172L10.0001 4.72506L9.11673 3.84172C8.25698 2.98198 7.09092 2.49898 5.87506 2.49898C4.6592 2.49898 3.49314 2.98198 2.63339 3.84172C1.77365 4.70147 1.29065 5.86753 1.29065 7.08339C1.29065 8.29925 1.77365 9.46531 2.63339 10.3251L3.51673 11.2084L10.0001 17.6917L16.4834 11.2084L17.3667 10.3251C17.7926 9.89943 18.1304 9.39407 18.3608 8.83785C18.5913 8.28164 18.7099 7.68546 18.7099 7.08339C18.7099 6.48132 18.5913 5.88514 18.3608 5.32893C18.1304 4.77271 17.7926 4.26735 17.3667 3.84172Z" fill="#FA0C2C"/>
</g>
<defs>
<filter id="filter0_d_79_163" x="-3.90935" y="-0.701465" width="27.8193" height="25.5931" filterUnits="userSpaceOnUse" color-interpolation-filters="sRGB">
<feFlood flood-opacity="0" result="BackgroundImageFix"/>
<feColorMatrix in="SourceAlpha" type="matrix" values="0 0 0 0 0 0 0 0 0 0 0 0 0 0 0 0 0 0 127 0" result="hardAlpha"/>
<feOffset dy="2"/>
<feGaussianBlur stdDeviation="2.6"/>
<feComposite in2="hardAlpha" operator="out"/>
<feColorMatrix type="matrix" values="0 0 0 0 0.980392 0 0 0 0 0.0470588 0 0 0 0 0.172549 0 0 0 0.2 0"/>
<feBlend mode="normal" in2="BackgroundImageFix" result="effect1_dropShadow_79_163"/>
<feBlend mode="normal" in="SourceGraphic" in2="effect1_dropShadow_79_163" result="shape"/>
</filter>
</defs>
</svg>
