<svg width="24" height="26" viewBox="0 0 24 26" fill="none" xmlns="http://www.w3.org/2000/svg">
<path d="M6.88918 12.3659V12.3529M17.1108 12.3659V12.3529M6.88918 8.47059V7.17647C6.88918 5.80358 7.42764 4.48693 8.3861 3.51615C9.34457 2.54538 10.6445 2 12 2C13.3555 2 14.6554 2.54538 15.6138 3.51615C16.5724 4.48693 17.1108 5.80358 17.1108 7.17647V8.47059M6.88918 8.47059H5.40739C4.07835 8.47059 2.97118 9.50241 2.86081 10.8439L2.009 21.1968C1.88485 22.7058 3.06057 24 4.55558 24H19.4444C20.9394 24 22.1152 22.7058 21.991 21.1968L21.1391 10.8439C21.0288 9.50241 19.9216 8.47059 18.5926 8.47059H17.1108M6.88918 8.47059H17.1108" stroke="#ADADAF" stroke-width="2.5" stroke-linecap="round" stroke-linejoin="round"/>
</svg>
